<?xml version="1.0" encoding="utf-8"?>
<!-- Generator: Adobe Illustrator 21.0.2, SVG Export Plug-In . SVG Version: 6.00 Build 0)  -->
<svg version="1.1" id="Layer_1" xmlns="http://www.w3.org/2000/svg" xmlns:xlink="http://www.w3.org/1999/xlink" x="0px" y="0px"
	 viewBox="0 0 21 24" style="enable-background:new 0 0 21 24;" xml:space="preserve">
<style type="text/css">
	.st0{fill:none;stroke:#FFFFFF;stroke-linejoin:round;}
	.st1{fill:none;stroke:#FFFFFF;stroke-linecap:round;stroke-linejoin:round;}
	.st2{fill:#FFFFFF;stroke:#FFFFFF;stroke-miterlimit:10;}
</style>
<title>Asset 19</title>
<g id="Layer_2">
	<g id="Icons">
		<polygon class="st0" points="0.5,20.5 2,23.5 18.9,23.5 20.5,20.4 13,10.5 13,2.5 8,2.5 8,10.5 		"/>
		<polygon class="st0" points="15,1.5 14,2.5 7,2.5 6,1.5 7,0.5 14,0.5 		"/>
		<line class="st1" x1="13" y1="4.5" x2="11" y2="4.5"/>
		<line class="st1" x1="13" y1="8.5" x2="11" y2="8.5"/>
		<line class="st1" x1="13" y1="6.5" x2="11" y2="6.5"/>
		<line class="st1" x1="6" y1="16.5" x2="15" y2="16.5"/>
		
			<rect x="6.9" y="18.9" transform="matrix(0.7071 -0.7071 0.7071 0.7071 -11.7959 11.5126)" class="st1" width="2.1" height="2.1"/>
		<path class="st2" d="M14.6,20.8l0.7-0.7c0.1-0.1,0.3-0.1,0.4,0l0.7,0.7c0.1,0.1,0.1,0.3,0,0.4l-0.7,0.7c-0.1,0.1-0.3,0.1-0.4,0
			l-0.7-0.7C14.5,21.1,14.5,20.9,14.6,20.8z"/>
		<path class="st2" d="M11.6,18.8l0.7-0.7c0.1-0.1,0.3-0.1,0.4,0l0.7,0.7c0.1,0.1,0.1,0.3,0,0.4l-0.7,0.7c-0.1,0.1-0.3,0.1-0.4,0
			l-0.7-0.7C11.5,19.1,11.5,18.9,11.6,18.8z"/>
	</g>
</g>
</svg>
