<?xml version="1.0" encoding="utf-8"?>
<!-- Generator: Adobe Illustrator 21.0.2, SVG Export Plug-In . SVG Version: 6.00 Build 0)  -->
<svg version="1.1" id="Layer_1" xmlns="http://www.w3.org/2000/svg" xmlns:xlink="http://www.w3.org/1999/xlink" x="0px" y="0px"
	 viewBox="0 0 23 24" style="enable-background:new 0 0 23 24;" xml:space="preserve">
<style type="text/css">
	.st0{fill:none;stroke:#FFFFFF;stroke-linejoin:round;}
	.st1{fill:none;stroke:#FFFFFF;stroke-linecap:round;stroke-linejoin:round;}
</style>
<title>Asset 19</title>
<g id="Layer_2">
	<g id="Icons">
		<polyline class="st0" points="7.5,14.5 9,14.5 9,12 11.5,0.5 14,12 14,14.5 16,14.5 		"/>
		<line class="st1" x1="0.5" y1="14.5" x2="5" y2="14.5"/>
		<line class="st1" x1="0.5" y1="5.5" x2="0.5" y2="5"/>
		<line class="st1" x1="9.5" y1="9.5" x2="11.5" y2="13"/>
		<line class="st1" x1="13.5" y1="9.5" x2="11.5" y2="13"/>
		<line class="st1" x1="10" y1="7.5" x2="13" y2="7.5"/>
		<polygon class="st1" points="4.5,23.5 5.5,21.5 7.5,21.5 8.5,23.5 		"/>
		<polyline class="st1" points="5.5,21.5 5.5,13 6.5,11.5 7.5,13 7.5,21.5 		"/>
		<polyline class="st1" points="5,19.7 0.5,18 0.5,7.5 		"/>
		<line class="st1" x1="10" y1="21.5" x2="7.5" y2="20.5"/>
		<line class="st1" x1="22.5" y1="14.5" x2="18" y2="14.5"/>
		<line class="st1" x1="22.5" y1="5.5" x2="22.5" y2="5"/>
		<polygon class="st1" points="19,23.5 18,21.5 16,21.5 15,23.5 		"/>
		<polyline class="st1" points="18,21.5 18,13 17,11.5 16,13 16,21.5 		"/>
		<polyline class="st1" points="18,19.7 22.5,18 22.5,7.5 		"/>
		<line class="st1" x1="13.5" y1="21.5" x2="16" y2="20.5"/>
		<polyline class="st1" points="11.5,22.5 9.5,22.5 10,17.5 		"/>
		<polyline class="st1" points="11.5,22.5 13.5,22.5 13,17.5 		"/>
		<line class="st1" x1="9" y1="14" x2="9" y2="15.5"/>
		<line class="st1" x1="14" y1="14" x2="14" y2="15.5"/>
	</g>
</g>
</svg>
