<?xml version="1.0" encoding="utf-8"?>
<!-- Generator: Adobe Illustrator 21.0.2, SVG Export Plug-In . SVG Version: 6.00 Build 0)  -->
<svg version="1.1" id="Layer_1" xmlns="http://www.w3.org/2000/svg" xmlns:xlink="http://www.w3.org/1999/xlink" x="0px" y="0px"
	 viewBox="0 0 24 24" style="enable-background:new 0 0 24 24;" xml:space="preserve">
<style type="text/css">
	.st0{fill:none;stroke:#FFFFFF;stroke-linecap:round;stroke-linejoin:round;}
	.st1{fill:none;stroke:#FFFFFF;stroke-linejoin:round;}
</style>
<title>Asset 5</title>
<g id="Layer_2">
	<g id="Icons">
		<line class="st0" x1="0.5" y1="16.2" x2="13" y2="4"/>
		<line class="st0" x1="8.5" y1="8.4" x2="16.5" y2="16.2"/>
		<polyline class="st0" points="21.5,14 21.5,20.5 0.5,20.5 0.5,4 13.5,4 		"/>
		<line class="st1" x1="0.5" y1="16.5" x2="21.5" y2="16.5"/>
		<line class="st1" x1="11" y1="20" x2="11" y2="23.5"/>
		<line class="st0" x1="6.5" y1="23.5" x2="15.5" y2="23.5"/>
		<line class="st0" x1="11.5" y1="18.5" x2="10.5" y2="18.5"/>
		<polygon class="st0" points="19.3,13.5 23.5,7 23.5,3.5 19.5,0.5 15.5,3.5 15.5,7 		"/>
		<polygon class="st1" points="21,6 19.5,7 18,6 18,4.5 19.5,3.5 21,4.5 		"/>
	</g>
</g>
</svg>
