<?xml version="1.0" encoding="utf-8"?>
<!-- Generator: Adobe Illustrator 21.0.2, SVG Export Plug-In . SVG Version: 6.00 Build 0)  -->
<svg version="1.1" id="Layer_1" xmlns="http://www.w3.org/2000/svg" xmlns:xlink="http://www.w3.org/1999/xlink" x="0px" y="0px"
	 viewBox="0 0 23 24" style="enable-background:new 0 0 23 24;" xml:space="preserve">
<style type="text/css">
	.st0{fill:none;stroke:#FFFFFF;stroke-linejoin:round;}
	.st1{fill:none;stroke:#FFFFFF;stroke-linecap:round;stroke-linejoin:round;}
</style>
<title>Asset 66</title>
<g id="Layer_2">
	<g id="Icons">
		<polygon class="st0" points="0.5,6.5 3.5,4.5 6.5,6.5 6.5,10.5 0.5,10.5 		"/>
		<polyline class="st0" points="11.5,23.5 5.5,23.5 8,19.5 9.5,19.5 		"/>
		<polyline class="st0" points="11.5,23.5 17.5,23.5 15,19.5 13.5,19.5 		"/>
		<line class="st1" x1="11.5" y1="11.5" x2="11.5" y2="12.5"/>
		<line class="st1" x1="11.5" y1="8.5" x2="11.5" y2="9.5"/>
		<polygon class="st0" points="13.5,16.5 11.5,14.5 9.5,16.5 9.5,23.5 13.5,23.5 		"/>
		<line class="st1" x1="2.5" y1="8" x2="2.5" y2="8.5"/>
		<line class="st1" x1="4.5" y1="8" x2="4.5" y2="8.5"/>
		<polygon class="st0" points="16.5,6.5 19.5,4.5 22.5,6.5 22.5,10.5 16.5,10.5 		"/>
		<line class="st1" x1="18.5" y1="8" x2="18.5" y2="8.5"/>
		<polygon class="st0" points="8.5,2.5 11.5,0.5 14.5,2.5 14.5,6.5 8.5,6.5 		"/>
		<line class="st1" x1="10.5" y1="4" x2="10.5" y2="4.5"/>
		<line class="st1" x1="12.5" y1="4" x2="12.5" y2="4.5"/>
		<line class="st1" x1="11.5" y1="18" x2="11.5" y2="19.5"/>
	</g>
</g>
</svg>
