<?xml version="1.0" encoding="utf-8"?>
<!-- Generator: Adobe Illustrator 21.0.2, SVG Export Plug-In . SVG Version: 6.00 Build 0)  -->
<svg version="1.1" id="Layer_1" xmlns="http://www.w3.org/2000/svg" xmlns:xlink="http://www.w3.org/1999/xlink" x="0px" y="0px"
	 viewBox="0 0 24 24" style="enable-background:new 0 0 24 24;" xml:space="preserve">
<style type="text/css">
	.st0{fill:none;stroke:#FFFFFF;stroke-linejoin:round;}
	.st1{fill:none;stroke:#FFFFFF;stroke-linecap:round;stroke-linejoin:round;}
</style>
<title>Asset 79</title>
<g id="Layer_2">
	<g id="Icons">
		<polygon class="st0" points="6.2,9.5 1.7,8.3 0.5,3.8 3.7,0.7 8.1,1.9 9.3,6.3 		"/>
		<polyline class="st0" points="8.1,1.9 22,6 23.5,10.5 19.9,13.5 6,9.4 		"/>
		<polyline class="st1" points="9.5,23.5 13,19.5 16.5,23.5 		"/>
		<line class="st1" x1="13" y1="17.5" x2="13" y2="23.5"/>
		<line class="st1" x1="11.5" y1="11" x2="8.5" y2="18"/>
		<line class="st1" x1="8.5" y1="14" x2="11.5" y2="15"/>
		<polygon class="st1" points="12.5,14 11.5,16.5 16,18 17,15.5 		"/>
		<line class="st1" x1="18" y1="4.5" x2="18.5" y2="3"/>
		<polyline class="st0" points="10.5,2.5 12,7 9,10 		"/>
		<polygon class="st1" points="16,2 21,3.5 21.5,2 16.5,0.5 		"/>
	</g>
</g>
</svg>
