<?xml version="1.0" encoding="utf-8"?>
<!-- Generator: Adobe Illustrator 21.0.2, SVG Export Plug-In . SVG Version: 6.00 Build 0)  -->
<svg version="1.1" id="Layer_1" xmlns="http://www.w3.org/2000/svg" xmlns:xlink="http://www.w3.org/1999/xlink" x="0px" y="0px"
	 viewBox="0 0 24 22.5" style="enable-background:new 0 0 24 22.5;" xml:space="preserve">
<style type="text/css">
	.st0{fill:none;stroke:#FFFFFF;stroke-linecap:round;stroke-linejoin:round;}
</style>
<title>Asset 81</title>
<g id="Layer_2">
	<g id="Icons">
		<line class="st0" x1="12" y1="3" x2="12" y2="20"/>
		<polyline class="st0" points="12,3 8,0.5 4,3 4,5 2,6 2,10 0.5,11 0.5,14 5,22 9,22 12,20 		"/>
		<line class="st0" x1="12" y1="13" x2="14.5" y2="13"/>
		<polyline class="st0" points="6,6 8,7 10,6 		"/>
		<polyline class="st0" points="5.5,18.5 8.2,18.5 8.2,16.8 9.5,15.5 		"/>
		<polyline class="st0" points="8,7 8,11 6,13 6,14.5 		"/>
		<line class="st0" x1="2" y1="10" x2="4.5" y2="10"/>
		<line class="st0" x1="12" y1="13" x2="9.5" y2="13"/>
		<line class="st0" x1="8" y1="1" x2="8" y2="3.5"/>
		<line class="st0" x1="2" y1="16" x2="4" y2="16"/>
		<polyline class="st0" points="12,3 16,0.5 20,3 20,5 22,6 22,10 23.5,11 23.5,14 19,22 15,22 12,20 		"/>
		<polyline class="st0" points="18,6 16,7 14,6 		"/>
		<polyline class="st0" points="18.5,18.5 15.8,18.5 15.8,16.8 14.5,15.5 		"/>
		<polyline class="st0" points="16,7 16,11 18,13 18,14.5 		"/>
		<line class="st0" x1="22" y1="10" x2="19.5" y2="10"/>
		<line class="st0" x1="16" y1="1" x2="16" y2="3.5"/>
		<line class="st0" x1="22" y1="16" x2="20" y2="16"/>
	</g>
</g>
</svg>
